<svg width="160" height="160" viewBox="0 0 160 160" fill="none" xmlns="http://www.w3.org/2000/svg">
<path opacity="0.2" d="M82.0045 123.424H17.5791C12.3221 123.424 9.04318 119.892 10.25 115.53L25.0494 62.0954C27.7809 55.0194 31.4955 54.2012 36.7525 54.2012H101.178C106.435 54.2012 109.714 57.7333 108.507 62.0954L93.7016 115.53C92.4948 119.892 87.2555 123.424 81.9986 123.424H82.0045Z" fill="#2C67FF"/>
<path opacity="0.4" d="M65.592 110.944H123.942C131.165 110.944 133.155 104.469 131.224 99.8832L113.028 65.1215C106.076 51.4817 101.955 54.4251 94.1667 54.0601H35.8106C28.9583 53.8364 25.332 59.0109 28.5286 65.1215L46.7248 99.8832C54.2717 113.888 58.3689 110.944 65.5861 110.944H65.592Z" fill="#2C67FF"/>
<path opacity="0.8" d="M123.248 110.922H58.8222C53.5653 110.922 50.2863 107.095 51.4931 102.38L66.2926 44.5418C67.4994 39.8205 72.7387 36 77.9956 36H142.421C147.678 36 150.957 39.8264 149.75 44.5418L134.945 102.374C133.738 107.095 128.499 110.916 123.242 110.916L123.248 110.922Z" fill="#2C67FF"/>
</svg>
