<svg xmlns="http://www.w3.org/2000/svg" viewBox="0 0 1200 630" fill="none">
  <defs>
    <linearGradient id="bg" x1="0" y1="0" x2="1200" y2="630" gradientUnits="userSpaceOnUse">
      <stop offset="0%" stop-color="#312e81"/>
      <stop offset="100%" stop-color="#0f0a2e"/>
    </linearGradient>
  </defs>
  <rect width="1200" height="630" fill="url(#bg)"/>
  <g opacity="0.04" stroke="#fff" stroke-width="1">
    <line x1="0" y1="60" x2="1200" y2="60"/><line x1="0" y1="120" x2="1200" y2="120"/>
    <line x1="0" y1="180" x2="1200" y2="180"/><line x1="0" y1="240" x2="1200" y2="240"/>
    <line x1="0" y1="300" x2="1200" y2="300"/><line x1="0" y1="360" x2="1200" y2="360"/>
    <line x1="0" y1="420" x2="1200" y2="420"/><line x1="0" y1="480" x2="1200" y2="480"/>
    <line x1="0" y1="540" x2="1200" y2="540"/>
  </g>
  <!-- Icon -->
  <g transform="translate(200, 165)">
    <rect width="300" height="300" rx="60" fill="#6366f1" opacity="0.15"/>
    <g transform="translate(75, 75) scale(2.3)">
      <path d="M20 18h8c6 0 10 4 10 10s-4 10-10 10h-8V18z" stroke="#a5b4fc" stroke-width="3" fill="none"/>
      <path d="M20 42v-4" stroke="#a5b4fc" stroke-width="3" stroke-linecap="round"/>
      <rect x="34" y="34" width="12" height="12" rx="2" fill="#a5b4fc" opacity="0.3"/>
      <path d="M37 40h6M40 37v6" stroke="#a5b4fc" stroke-width="1.5" stroke-linecap="round"/>
    </g>
  </g>
  <!-- Title -->
  <text x="560" y="230" font-family="system-ui, sans-serif" font-size="56" font-weight="700" fill="#fff">DPS</text>
  <text x="560" y="280" font-family="system-ui, sans-serif" font-size="24" fill="#a5b4fc">Design Plug Shop</text>
  <text x="560" y="320" font-family="system-ui, sans-serif" font-size="20" fill="#94a3b8">B2B 주문형 굿즈·인쇄 제작 플랫폼</text>
  <!-- Pills -->
  <g transform="translate(560, 360)">
    <rect x="0" y="0" width="120" height="34" rx="17" fill="#6366f1" opacity="0.25"/>
    <text x="60" y="22" font-family="system-ui, sans-serif" font-size="13" fill="#c7d2fe" text-anchor="middle">멀티테넌트</text>
    <rect x="132" y="0" width="120" height="34" rx="17" fill="#6366f1" opacity="0.25"/>
    <text x="192" y="22" font-family="system-ui, sans-serif" font-size="13" fill="#c7d2fe" text-anchor="middle">주문 자동화</text>
    <rect x="264" y="0" width="100" height="34" rx="17" fill="#6366f1" opacity="0.25"/>
    <text x="314" y="22" font-family="system-ui, sans-serif" font-size="13" fill="#c7d2fe" text-anchor="middle">외부 API</text>
    <rect x="376" y="0" width="100" height="34" rx="17" fill="#6366f1" opacity="0.25"/>
    <text x="426" y="22" font-family="system-ui, sans-serif" font-size="13" fill="#c7d2fe" text-anchor="middle">배치 작업</text>
  </g>
  <!-- Stats -->
  <g transform="translate(560, 440)">
    <text x="0" y="0" font-family="system-ui, sans-serif" font-size="34" font-weight="700" fill="#818cf8">10+</text>
    <text x="0" y="26" font-family="system-ui, sans-serif" font-size="13" fill="#64748b">배치 작업</text>
    <text x="140" y="0" font-family="system-ui, sans-serif" font-size="34" font-weight="700" fill="#818cf8">3</text>
    <text x="140" y="26" font-family="system-ui, sans-serif" font-size="13" fill="#64748b">역할 체계</text>
    <text x="260" y="0" font-family="system-ui, sans-serif" font-size="34" font-weight="700" fill="#818cf8">5+</text>
    <text x="260" y="26" font-family="system-ui, sans-serif" font-size="13" fill="#64748b">외부 연동</text>
  </g>
  <rect x="0" y="620" width="1200" height="10" fill="#6366f1"/>
</svg>
