<svg width="160" height="160" viewBox="0 0 160 160" fill="none" xmlns="http://www.w3.org/2000/svg">
<g clip-path="url(#clip0_2251_17)">
<path d="M159.895 58.781C159.485 53.5205 157.835 48.2757 154.933 43.0516C152.032 37.8276 148.059 32.7128 143.002 27.7073L141.441 26.162C139.954 24.6894 138.466 24.6894 136.979 26.162L123.155 39.8464C121.594 41.3918 121.557 42.9007 123.045 44.3733L124.606 45.9186C128.175 49.4516 129.962 53.1667 129.957 57.0691C129.957 60.9664 127.765 65.0873 123.376 69.432C119.139 73.6258 115.182 75.8164 111.502 75.9985C107.823 76.1806 104.202 74.5104 100.633 70.9774C99.5185 69.8743 98.462 68.3497 97.4529 66.3985C96.4489 64.4473 95.9128 62.4077 95.834 60.2743L133.52 22.9672C133.646 22.8423 133.762 22.7122 133.872 22.5873C134.792 21.5987 134.992 20.5945 134.471 19.5695C134.471 19.5643 134.466 19.5539 134.461 19.5486C134.456 19.5382 134.45 19.5278 134.44 19.5122C134.261 19.1532 133.993 18.7994 133.636 18.4456L116.133 1.1084C115.618 0.598486 115.103 0.275885 114.577 0.124992C113.61 -0.192405 112.669 0.0937724 111.765 0.993931L81.1012 31.3496C80.954 28.2589 80.0762 25.2254 78.4836 22.2439C76.8858 19.2625 75.0093 16.7077 72.8543 14.5744C68.9123 10.6719 64.6233 7.67488 59.9769 5.57798C55.3305 3.48107 50.537 2.45084 45.591 2.48726C40.645 2.52368 35.6097 3.684 30.485 5.96302C25.3551 8.24203 20.3775 11.775 15.5419 16.5568L13.3134 18.763C8.33058 23.6956 4.78272 28.7532 2.66451 33.9408C0.546307 39.1336 -0.310436 44.3576 0.0995391 49.6181C0.509514 54.8786 2.15993 60.1234 5.06129 65.3475C7.96265 70.5715 11.9363 75.6863 16.9926 80.6918L18.5537 82.2372C20.0411 83.7097 21.5286 83.7097 23.0161 82.2372L36.8396 68.5527C38.4007 67.0073 38.4375 65.4984 36.95 64.0259L35.3889 62.4805C31.82 58.9475 30.033 55.2324 30.0382 51.33C30.0382 47.4328 32.23 43.3118 36.6189 38.9671C40.8553 34.7733 44.8131 32.5827 48.4924 32.4006C52.1716 32.2185 55.7983 33.8888 59.362 37.4217C60.4763 38.5248 61.5327 40.0494 62.5419 42.0006C63.5458 43.9518 64.0819 45.9915 64.1608 48.1248L43.888 68.1936L24.1304 87.7526L86.0997 149.099L105.857 129.54L65.8637 89.9483L78.8988 77.0443C79.046 80.1351 79.9238 83.1685 81.5164 86.15C83.1142 89.1314 84.9907 91.6862 87.1457 93.8196C91.0877 97.722 95.3767 100.719 100.023 102.816C104.669 104.913 109.463 105.943 114.409 105.907C119.355 105.87 124.39 104.71 129.515 102.431C134.645 100.152 139.622 96.6189 144.458 91.8371L146.687 89.631C151.669 84.6983 155.217 79.6408 157.335 74.4531C159.454 69.2655 160.31 64.0415 159.9 58.781H159.895Z" fill="#2356FD"/>
<path d="M133.535 124.77H158.014V132.062H142.531V138.265H156.736V145.557H142.531V151.76H157.967V159.052H133.535V124.77Z" fill="black"/>
<path d="M102.191 124.77H116.775C119.316 124.77 121.541 125.235 123.451 126.166C125.376 127.098 126.86 128.439 127.902 130.191C128.943 131.927 129.464 133.987 129.464 136.371C129.464 138.706 128.951 140.711 127.925 142.384C126.915 144.057 125.471 145.336 123.593 146.22L130.6 159.052H120.799L114.715 147.64H111.188V159.052H102.191V124.77ZM114.691 140.585C116.443 140.585 117.769 140.245 118.669 139.567C119.584 138.888 120.042 137.823 120.042 136.371C120.042 134.887 119.584 133.782 118.669 133.056C117.753 132.33 116.428 131.967 114.691 131.967H111.188V140.585H114.691Z" fill="black"/>
<path d="M97.7889 142.384C97.7889 146.077 97.0629 149.25 95.6109 151.902C94.1747 154.553 92.2018 156.566 89.6924 157.939C87.1829 159.312 84.3578 159.999 81.217 159.999C78.0604 159.999 75.2195 159.312 72.6942 157.939C70.1848 156.566 68.204 154.553 66.752 151.902C65.3158 149.25 64.5977 146.077 64.5977 142.384C64.5977 138.691 65.3158 135.518 66.752 132.867C68.204 130.215 70.1848 128.202 72.6942 126.829C75.2037 125.456 78.0446 124.77 81.217 124.77C84.3578 124.77 87.1829 125.456 89.6924 126.829C92.2018 128.202 94.1747 130.215 95.6109 132.867C97.0629 135.518 97.7889 138.691 97.7889 142.384ZM88.5086 142.384C88.5086 139.243 87.8773 136.836 86.6147 135.163C85.3679 133.474 83.5686 132.63 81.217 132.63C78.8496 132.63 77.0345 133.474 75.7719 135.163C74.5093 136.836 73.878 139.243 73.878 142.384C73.878 145.525 74.5093 147.94 75.7719 149.629C77.0345 151.302 78.8496 152.138 81.217 152.138C83.5686 152.138 85.3679 151.302 86.6147 149.629C87.8773 147.94 88.5086 145.525 88.5086 142.384Z" fill="black"/>
<path d="M33.25 124.77H62.7955V132.062H52.4735V159.052H43.572V132.062H33.25V124.77Z" fill="black"/>
<path d="M21.4129 135.85C21.3182 134.666 20.8763 133.766 20.0871 133.151C19.298 132.519 18.1458 132.204 16.6307 132.204C15.1787 132.204 14.0896 132.464 13.3636 132.985C12.6376 133.49 12.2746 134.177 12.2746 135.045C12.2746 135.881 12.6613 136.56 13.4347 137.081C14.208 137.586 15.3996 138.012 17.0095 138.359L19.8504 139.022C23.4804 139.796 26.1635 141.058 27.8996 142.81C29.6357 144.546 30.5196 146.756 30.5511 149.439C30.5354 151.665 29.9751 153.567 28.8703 155.145C27.7655 156.708 26.1793 157.899 24.1117 158.72C22.0442 159.541 19.5663 159.951 16.678 159.951C12.1168 159.951 8.54198 158.925 5.9536 156.873C3.36521 154.822 2.04735 151.744 2 147.64H10.6174C10.6806 149.203 11.233 150.41 12.2746 151.262C13.3163 152.099 14.7367 152.517 16.536 152.517C18.0354 152.517 19.1954 152.241 20.0161 151.689C20.8526 151.12 21.2866 150.371 21.3182 149.439C21.2866 148.603 20.8763 147.924 20.0871 147.403C19.3138 146.882 17.9722 146.409 16.0625 145.983L12.6061 145.225C6.1351 143.805 2.89962 140.601 2.89962 135.613C2.88384 133.482 3.45991 131.596 4.62784 129.954C5.79577 128.313 7.4214 127.042 9.50474 126.143C11.5881 125.227 13.9634 124.77 16.6307 124.77C19.3453 124.77 21.7128 125.227 23.733 126.143C25.7532 127.058 27.3078 128.352 28.3968 130.025C29.5016 131.699 30.0619 133.64 30.0777 135.85H21.4129Z" fill="black"/>
</g>
<defs>
<clipPath id="clip0_2251_17">
<rect width="160" height="160" fill="white"/>
</clipPath>
</defs>
</svg>
