<svg xmlns="http://www.w3.org/2000/svg" viewBox="0 0 1200 630" fill="none">
  <defs>
    <linearGradient id="bg" x1="0" y1="0" x2="1200" y2="630" gradientUnits="userSpaceOnUse">
      <stop offset="0%" stop-color="#3b1f7e"/>
      <stop offset="100%" stop-color="#110a2e"/>
    </linearGradient>
  </defs>
  <rect width="1200" height="630" fill="url(#bg)"/>
  <g opacity="0.04" stroke="#fff" stroke-width="1">
    <line x1="0" y1="60" x2="1200" y2="60"/><line x1="0" y1="120" x2="1200" y2="120"/>
    <line x1="0" y1="180" x2="1200" y2="180"/><line x1="0" y1="240" x2="1200" y2="240"/>
    <line x1="0" y1="300" x2="1200" y2="300"/><line x1="0" y1="360" x2="1200" y2="360"/>
    <line x1="0" y1="420" x2="1200" y2="420"/><line x1="0" y1="480" x2="1200" y2="480"/>
    <line x1="0" y1="540" x2="1200" y2="540"/>
  </g>
  <!-- Icon -->
  <g transform="translate(200, 165)">
    <rect width="300" height="300" rx="60" fill="#8b5cf6" opacity="0.15"/>
    <g transform="translate(75, 75) scale(2.3)">
      <path d="M16 26l6-10h20l6 10" stroke="#c4b5fd" stroke-width="2.5" stroke-linecap="round" stroke-linejoin="round"/>
      <rect x="16" y="26" width="32" height="22" rx="2" stroke="#c4b5fd" stroke-width="2.5" fill="none"/>
      <path d="M26 48V36a6 6 0 0112 0v12" stroke="#c4b5fd" stroke-width="2.5"/>
    </g>
  </g>
  <!-- Title -->
  <text x="560" y="230" font-family="system-ui, sans-serif" font-size="56" font-weight="700" fill="#fff">DPS Store</text>
  <text x="560" y="280" font-family="system-ui, sans-serif" font-size="24" fill="#c4b5fd">디플샵 스토어</text>
  <text x="560" y="320" font-family="system-ui, sans-serif" font-size="20" fill="#94a3b8">멀티테넌트 기반 팝업 스토어 플랫폼</text>
  <!-- Pills -->
  <g transform="translate(560, 360)">
    <rect x="0" y="0" width="130" height="34" rx="17" fill="#8b5cf6" opacity="0.25"/>
    <text x="65" y="22" font-family="system-ui, sans-serif" font-size="13" fill="#ddd6fe" text-anchor="middle">커스텀 도메인</text>
    <rect x="142" y="0" width="130" height="34" rx="17" fill="#8b5cf6" opacity="0.25"/>
    <text x="207" y="22" font-family="system-ui, sans-serif" font-size="13" fill="#ddd6fe" text-anchor="middle">비주얼 빌더</text>
    <rect x="284" y="0" width="100" height="34" rx="17" fill="#8b5cf6" opacity="0.25"/>
    <text x="334" y="22" font-family="system-ui, sans-serif" font-size="13" fill="#ddd6fe" text-anchor="middle">다국어</text>
    <rect x="396" y="0" width="100" height="34" rx="17" fill="#8b5cf6" opacity="0.25"/>
    <text x="446" y="22" font-family="system-ui, sans-serif" font-size="13" fill="#ddd6fe" text-anchor="middle">PDF 주문</text>
  </g>
  <!-- Stats -->
  <g transform="translate(560, 440)">
    <text x="0" y="0" font-family="system-ui, sans-serif" font-size="34" font-weight="700" fill="#a78bfa">3</text>
    <text x="0" y="26" font-family="system-ui, sans-serif" font-size="13" fill="#64748b">테넌트 타입</text>
    <text x="140" y="0" font-family="system-ui, sans-serif" font-size="34" font-weight="700" fill="#a78bfa">8</text>
    <text x="140" y="26" font-family="system-ui, sans-serif" font-size="13" fill="#64748b">페이지 시스템</text>
    <text x="280" y="0" font-family="system-ui, sans-serif" font-size="34" font-weight="700" fill="#a78bfa">3</text>
    <text x="280" y="26" font-family="system-ui, sans-serif" font-size="13" fill="#64748b">지원 언어</text>
  </g>
  <rect x="0" y="620" width="1200" height="10" fill="#8b5cf6"/>
</svg>
