<svg xmlns="http://www.w3.org/2000/svg" viewBox="0 0 2000 2000">
  <rect width="2000" height="2000" fill="#333"/>
  <g transform="translate(0, 680)">
    <g transform="translate(0,640) scale(0.1,-0.1)" fill="#fff" stroke="none">
      <path d="M9518 6101 c-185 -4 -340 -10 -344 -13 -12 -13 -257 -1181 -459 -2193 -120 -601 -344 -1762 -361 -1873 l-7 -43 59 6 c33 3 182 12 333 20 151 8 278 18 281 22 4 5 40 172 80 373 40 201 76 374 80 385 5 13 47 38 126 74 264 119 704 311 712 311 5 0 19 -46 31 -102 12 -57 67 -309 121 -562 55 -252 101 -460 103 -463 5 -4 669 -25 673 -20 3 2 -162 820 -266 1317 -167 803 -529 2461 -587 2695 l-18 70 -110 1 c-60 0 -262 -2 -447 -5z m220 -1653 c56 -249 102 -459 102 -465 0 -7 -4 -13 -10 -13 -5 0 -105 -43 -222 -95 -117 -52 -214 -92 -217 -89 -3 3 39 210 94 462 54 251 108 501 119 555 11 53 23 97 26 97 3 0 52 -204 108 -452z"/>
      <path d="M11110 6074 c0 -5 -16 -918 -35 -2029 -27 -1578 -32 -2021 -22 -2027 7 -4 39 -8 72 -8 33 0 178 -7 323 -16 145 -9 265 -14 267 -12 3 2 14 368 26 814 12 445 24 811 25 813 7 8 755 -62 1104 -104 107 -12 196 -22 197 -21 5 5 45 867 40 872 -11 12 -700 86 -1112 119 -110 9 -201 18 -203 20 -5 5 15 656 20 661 10 9 820 -67 1181 -112 115 -14 211 -24 213 -22 3 4 44 779 44 842 l0 33 -222 27 c-461 55 -986 103 -1428 130 -404 25 -490 29 -490 20z"/>
      <path d="M6975 6024 c-382 -69 -672 -291 -816 -624 -87 -201 -113 -343 -113 -605 0 -304 37 -503 130 -692 84 -172 202 -306 361 -410 114 -75 181 -103 431 -184 120 -38 258 -86 307 -105 216 -83 295 -190 295 -400 0 -81 -3 -98 -28 -145 -32 -62 -94 -109 -175 -135 -71 -22 -262 -30 -351 -14 -190 33 -409 151 -580 311 -50 47 -78 66 -81 57 -3 -7 -57 -206 -120 -443 l-114 -430 22 -23 c33 -35 192 -153 272 -201 145 -87 310 -154 465 -187 126 -27 370 -25 508 4 392 84 654 301 796 660 99 249 129 594 80 930 -58 399 -249 676 -581 841 -95 47 -296 122 -498 186 -330 103 -416 187 -417 404 0 68 3 86 28 131 37 67 100 115 187 141 61 19 85 21 210 16 160 -6 221 -20 345 -77 106 -50 200 -112 285 -190 44 -41 69 -57 72 -48 2 7 59 193 125 413 67 219 123 402 126 406 5 8 -166 148 -253 206 -150 102 -307 169 -470 202 -121 25 -325 27 -448 5z"/>
      <path d="M13347 5798 c-18 -279 -200 -3958 -196 -3963 3 -3 129 -23 280 -45 151 -22 299 -44 329 -49 30 -5 57 -8 58 -6 3 3 251 3968 252 4021 0 20 -10 23 -107 38 -183 29 -577 86 -594 86 -13 0 -17 -16 -22 -82z"/>
      <path d="M14177 5319 c-16 -237 -26 -434 -23 -436 3 -3 103 -23 223 -44 284 -50 622 -115 626 -120 2 -2 -51 -713 -119 -1579 -67 -866 -121 -1576 -120 -1577 2 -3 595 -131 644 -140 23 -4 32 -2 32 8 -1 16 273 3133 275 3136 1 2 192 -45 424 -103 233 -57 425 -103 427 -101 8 8 91 852 85 859 -13 14 -647 171 -1086 268 -406 91 -1282 260 -1344 260 -15 0 -20 -48 -44 -431z"/>
      <path d="M4651 5640 c-453 -94 -769 -367 -910 -790 -106 -314 -93 -766 29 -1103 60 -163 194 -339 332 -434 156 -107 238 -138 588 -218 151 -35 300 -73 331 -84 160 -60 229 -154 245 -331 20 -215 -132 -345 -427 -367 -234 -16 -484 75 -722 264 -45 36 -69 50 -72 41 -3 -7 -49 -213 -104 -456 l-99 -444 65 -46 c153 -111 358 -209 529 -252 182 -47 367 -50 561 -11 526 108 862 455 958 986 50 282 18 695 -75 947 -61 168 -184 332 -326 434 -137 98 -341 171 -699 249 -330 72 -419 130 -454 293 -54 255 123 412 465 412 210 0 412 -75 592 -220 34 -27 62 -48 62 -45 0 2 48 188 106 412 59 224 109 417 111 429 4 17 -9 31 -64 71 -167 121 -328 202 -498 250 -127 35 -385 42 -524 13z"/>
      <path d="M2830 5414 c-14 -7 -42 -14 -63 -14 -21 0 -68 -12 -103 -26 -53 -21 -74 -25 -114 -19 -60 8 -236 -19 -299 -46 -32 -14 -67 -19 -133 -19 -49 0 -108 -4 -131 -9 -23 -5 -67 -14 -97 -21 -42 -8 -65 -20 -100 -53 -44 -41 -44 -43 -62 -152 -10 -60 -23 -159 -29 -220 -13 -131 -19 -145 -62 -145 -18 -1 -57 -9 -87 -20 -32 -11 -82 -19 -120 -20 -36 0 -101 -7 -145 -15 -70 -13 -84 -20 -116 -53 -35 -36 -35 -40 -58 -202 -22 -149 -23 -186 -17 -390 8 -291 55 -801 82 -897 5 -18 1 -23 -22 -28 -60 -13 -292 -88 -350 -115 -64 -29 -85 -57 -99 -132 -9 -50 16 -102 61 -123 32 -15 45 -14 244 17 115 17 212 29 216 25 4 -3 22 -82 40 -174 112 -568 277 -1063 403 -1213 29 -35 29 -35 107 -33 47 1 105 10 144 22 36 11 92 21 125 21 52 0 141 11 183 22 8 2 31 -36 60 -102 88 -196 159 -292 225 -304 39 -7 229 24 293 48 22 8 90 17 159 20 66 2 145 12 175 21 30 9 102 20 160 25 144 13 280 38 307 56 63 41 82 139 90 479 7 313 -21 724 -82 1195 -30 228 -35 277 -45 390 -5 63 -21 169 -35 235 -38 174 -60 284 -85 420 -56 306 -163 762 -234 995 -65 214 -110 332 -171 446 l-55 102 -47 7 c-27 3 -57 8 -68 10 -11 2 -31 -3 -45 -11z"/>
      <path d="M17067 5418 l-57 -10 -55 -102 c-59 -111 -106 -231 -167 -431 -44 -145 -114 -417 -147 -570 -56 -260 -83 -391 -107 -525 -14 -80 -31 -170 -39 -200 -7 -30 -19 -86 -25 -125 -7 -38 -17 -92 -21 -120 -9 -50 -22 -154 -39 -315 -5 -47 -16 -137 -25 -200 -60 -459 -89 -881 -82 -1195 8 -340 27 -438 90 -479 27 -18 163 -43 307 -56 58 -5 130 -16 160 -25 30 -9 109 -19 175 -21 69 -3 137 -12 159 -20 64 -24 254 -55 293 -48 66 12 137 108 225 304 29 66 52 104 60 102 42 -11 131 -22 183 -22 33 0 89 -10 125 -21 39 -12 97 -21 144 -22 78 -2 78 -2 107 33 126 150 291 645 403 1213 18 92 36 171 40 174 4 4 101 -8 216 -25 199 -31 212 -32 244 -17 45 21 70 73 61 123 -14 75 -35 103 -99 132 -58 27 -290 102 -350 115 -23 5 -27 10 -22 28 27 96 74 606 82 897 6 204 5 241 -17 390 -23 162 -23 166 -58 202 -32 33 -46 40 -116 53 -44 8 -109 15 -145 15 -38 1 -88 9 -120 20 -30 11 -69 19 -87 20 -43 0 -49 14 -62 145 -6 61 -19 160 -29 220 -18 109 -18 111 -62 152 -35 33 -58 45 -100 53 -30 7 -74 16 -97 21 -23 5 -82 9 -131 9 -66 0 -101 5 -133 19 -63 27 -239 54 -299 46 -40 -6 -61 -2 -114 19 -35 14 -82 26 -103 26 -21 0 -51 7 -67 15 -15 8 -31 14 -35 14 -3 -1 -32 -6 -64 -11z"/>
    </g>
  </g>
</svg>
