<svg xmlns="http://www.w3.org/2000/svg" viewBox="0 0 1200 630" fill="none">
  <defs>
    <linearGradient id="bg" x1="0" y1="0" x2="1200" y2="630" gradientUnits="userSpaceOnUse">
      <stop offset="0%" stop-color="#064e3b"/>
      <stop offset="100%" stop-color="#0a1e18"/>
    </linearGradient>
  </defs>
  <rect width="1200" height="630" fill="url(#bg)"/>
  <g opacity="0.04" stroke="#fff" stroke-width="1">
    <line x1="0" y1="60" x2="1200" y2="60"/><line x1="0" y1="120" x2="1200" y2="120"/>
    <line x1="0" y1="180" x2="1200" y2="180"/><line x1="0" y1="240" x2="1200" y2="240"/>
    <line x1="0" y1="300" x2="1200" y2="300"/><line x1="0" y1="360" x2="1200" y2="360"/>
    <line x1="0" y1="420" x2="1200" y2="420"/><line x1="0" y1="480" x2="1200" y2="480"/>
    <line x1="0" y1="540" x2="1200" y2="540"/>
  </g>
  <!-- Icon -->
  <g transform="translate(200, 165)">
    <rect width="300" height="300" rx="60" fill="#10b981" opacity="0.15"/>
    <g transform="translate(75, 75) scale(2.3)">
      <path d="M22 44V28l-6 8" stroke="#6ee7b7" stroke-width="3" stroke-linecap="round" stroke-linejoin="round"/>
      <path d="M42 44V24l6 8" stroke="#6ee7b7" stroke-width="3" stroke-linecap="round" stroke-linejoin="round"/>
      <rect x="28" y="20" width="8" height="24" rx="4" stroke="#6ee7b7" stroke-width="2.5" fill="none"/>
      <circle cx="32" cy="32" r="2" fill="#6ee7b7"/>
    </g>
  </g>
  <!-- Title -->
  <text x="560" y="240" font-family="system-ui, sans-serif" font-size="56" font-weight="700" fill="#fff">SSAFIT</text>
  <text x="560" y="290" font-family="system-ui, sans-serif" font-size="20" fill="#94a3b8">운동 영상·기록·식단 통합 피트니스 웹 애플리케이션</text>
  <!-- Pills -->
  <g transform="translate(560, 330)">
    <rect x="0" y="0" width="120" height="34" rx="17" fill="#10b981" opacity="0.25"/>
    <text x="60" y="22" font-family="system-ui, sans-serif" font-size="13" fill="#a7f3d0" text-anchor="middle">영상 검색</text>
    <rect x="132" y="0" width="120" height="34" rx="17" fill="#10b981" opacity="0.25"/>
    <text x="192" y="22" font-family="system-ui, sans-serif" font-size="13" fill="#a7f3d0" text-anchor="middle">운동 기록</text>
    <rect x="264" y="0" width="120" height="34" rx="17" fill="#10b981" opacity="0.25"/>
    <text x="324" y="22" font-family="system-ui, sans-serif" font-size="13" fill="#a7f3d0" text-anchor="middle">식단 관리</text>
    <rect x="396" y="0" width="120" height="34" rx="17" fill="#10b981" opacity="0.25"/>
    <text x="456" y="22" font-family="system-ui, sans-serif" font-size="13" fill="#a7f3d0" text-anchor="middle">차트 시각화</text>
  </g>
  <!-- Tech -->
  <g transform="translate(560, 420)">
    <text x="0" y="0" font-family="system-ui, sans-serif" font-size="15" fill="#6ee7b7">Vue.js</text>
    <text x="60" y="0" font-family="system-ui, sans-serif" font-size="15" fill="#64748b">·</text>
    <text x="72" y="0" font-family="system-ui, sans-serif" font-size="15" fill="#6ee7b7">Spring Boot</text>
    <text x="180" y="0" font-family="system-ui, sans-serif" font-size="15" fill="#64748b">·</text>
    <text x="192" y="0" font-family="system-ui, sans-serif" font-size="15" fill="#6ee7b7">Chart.js</text>
    <text x="280" y="0" font-family="system-ui, sans-serif" font-size="15" fill="#64748b">·</text>
    <text x="292" y="0" font-family="system-ui, sans-serif" font-size="15" fill="#6ee7b7">MySQL</text>
  </g>
  <rect x="0" y="620" width="1200" height="10" fill="#10b981"/>
</svg>
