<svg xmlns="http://www.w3.org/2000/svg" viewBox="0 0 1200 630">
  <defs>
    <linearGradient id="shield" x1="0" y1="0" x2="0" y2="1">
      <stop offset="0%" stop-color="#3b82f6"/>
      <stop offset="100%" stop-color="#1d4ed8"/>
    </linearGradient>
  </defs>

  <rect width="1200" height="630" fill="#f5f5f5"/>

  <!-- Shield icon -->
  <g transform="translate(536, 210) scale(2)">
    <path d="M32 4L8 14v18c0 14 10 24 24 28 14-4 24-14 24-28V14L32 4z" fill="#2563eb" opacity="0.3"/>
    <path d="M32 8L12 16.5V32c0 11.5 8.5 20 20 23.5 11.5-3.5 20-12 20-23.5V16.5L32 8z" fill="url(#shield)"/>
    <rect x="26" y="24" width="12" height="16" rx="2" fill="#fff"/>
    <circle cx="32" cy="20" r="6" stroke="#fff" stroke-width="3" fill="none"/>
    <circle cx="32" cy="32" r="2" fill="#1d4ed8"/>
  </g>

  <!-- Title -->
  <text x="600" y="400" font-family="system-ui, -apple-system, sans-serif" font-size="48" font-weight="700" fill="#1e293b" text-anchor="middle">정보보안기사</text>

  <!-- Description -->
  <text x="600" y="445" font-family="system-ui, -apple-system, sans-serif" font-size="20" fill="#64748b" text-anchor="middle">시험 대비 웹 애플리케이션</text>
</svg>
